# xmcd
#
# Track frame offsets:
#	150
#	13899
#	34358
#	50000
#	69154
#	84077
#	103126
#	118969
#	138135
#	156310
#	172157
#	192348
#	216230
#	236045
#	253779
#	272107
#	289688
#	307577
#	330048
#
# Disc length: 4620 seconds
#
# Revision: 0
# Processed by: cddbd v1.5.1PL2 Copyright (c) Steve Scherf et al.
# Submitted via: EasyCDDAExtractor 4.5.0.1
#
DISCID=12120a13
DTITLE=BALADAS POP 80 ' S VARIOS - TIEMPO PARA AMRTE
DYEAR=2006
DGENRE=Ballad
TTITLE0=Ay amor
TTITLE1=Tengo todo excepto a ti
TTITLE2=Siempre
TTITLE3=Sueños compartidos
TTITLE4=Mírame
TTITLE5=El ultimo dia del otoño
TTITLE6=No me puedo escapar de ti
TTITLE7=Y tú no estas aqui
TTITLE8=Estoy loco
TTITLE9=Yo que no vivo sin ti
TTITLE10=No hace falta
TTITLE11=Tiempo para amarte
TTITLE12=Solo
TTITLE13=Culpable o no
TTITLE14=El breve espacio
TTITLE15=Fría como el viento
TTITLE16=Tan solo
TTITLE17=Sera
TTITLE18=Me acordaré de ti
EXTD=
EXTT0=
EXTT1=
EXTT2=
EXTT3=
EXTT4=
EXTT5=
EXTT6=
EXTT7=
EXTT8=
EXTT9=
EXTT10=
EXTT11=
EXTT12=
EXTT13=
EXTT14=
EXTT15=
EXTT16=
EXTT17=
EXTT18=
PLAYORDER=
